<svg id="Capa_1" data-name="Capa 1" xmlns="http://www.w3.org/2000/svg" viewBox="0 0 693.41 132.79"><defs><style>.cls-1{fill:#fff;}.cls-2{fill:#ff006c;stroke:#ff006c;stroke-miterlimit:10;stroke-width:0.75px;}</style></defs><path class="cls-1" d="M67.89,51.64a14.45,14.45,0,0,1-2,7.53,15.32,15.32,0,0,1-5.39,5.43,14.42,14.42,0,0,1-7.57,2H7.36V59.14H52.91a7.19,7.19,0,0,0,5.32-2.21,7.52,7.52,0,0,0,0-10.57,7.19,7.19,0,0,0-5.32-2.21H22.34a14.45,14.45,0,0,1-7.53-2A15.35,15.35,0,0,1,9.38,36.7a14.5,14.5,0,0,1-2-7.53,14.45,14.45,0,0,1,2-7.53,15.19,15.19,0,0,1,5.43-5.43,14.46,14.46,0,0,1,7.53-2H64.15v7.49H22.34a7.55,7.55,0,0,0-7.49,7.5,7.55,7.55,0,0,0,7.49,7.49H52.91a14.42,14.42,0,0,1,7.57,2,15.49,15.49,0,0,1,5.39,5.43A14.5,14.5,0,0,1,67.89,51.64Z"/><path class="cls-1" d="M146.78,40.4a29.77,29.77,0,0,1-1.72,10.23A25.45,25.45,0,0,1,140.15,59a22.38,22.38,0,0,1-7.6,5.62,23.3,23.3,0,0,1-9.81,2H105.28a23.47,23.47,0,0,1-9.89-2A22.38,22.38,0,0,1,87.79,59a25.45,25.45,0,0,1-4.91-8.35,30.87,30.87,0,0,1,0-20.38,26.05,26.05,0,0,1,4.91-8.39,22.21,22.21,0,0,1,7.6-5.65,23.47,23.47,0,0,1,9.89-2h17.46a23.3,23.3,0,0,1,9.81,2,22.21,22.21,0,0,1,7.6,5.65,26.05,26.05,0,0,1,4.91,8.39A29.6,29.6,0,0,1,146.78,40.4Zm-7.49,0a22.2,22.2,0,0,0-2-9.44,16.38,16.38,0,0,0-5.7-6.78,15.47,15.47,0,0,0-8.87-2.51H105.28a15.48,15.48,0,0,0-8.88,2.51A16.67,16.67,0,0,0,90.67,31a21.78,21.78,0,0,0-2,9.44,21.52,21.52,0,0,0,2,9.41,16.94,16.94,0,0,0,5.73,6.78,15.28,15.28,0,0,0,8.88,2.55h17.46a15.27,15.27,0,0,0,8.87-2.55,16.63,16.63,0,0,0,5.7-6.78A21.94,21.94,0,0,0,139.29,40.4Z"/><path class="cls-1" d="M218.18,21.67H171.36v45h-7.49V14.18h54.31Zm-6.44,22.48H175.1V36.66h36.64Z"/><path class="cls-1" d="M261.71,66.63h-7.49v-45H227.7V14.18h60.53v7.49H261.71Z"/><path class="cls-1" d="M357.08,21.67H310.26v45h-7.49V14.18h54.31Zm-6.44,22.48H314V36.66h36.64Z"/><path class="cls-1" d="M428.33,14.18l-.07,26.22a26.12,26.12,0,0,1-16,24.2,25.62,25.62,0,0,1-10.15,2h-5.54A25.87,25.87,0,0,1,378.06,59a26.6,26.6,0,0,1-5.62-8.39,25.67,25.67,0,0,1-2-10.16V14.18h7.49V40.4a18.13,18.13,0,0,0,2.51,9.41,19.15,19.15,0,0,0,6.78,6.78,18,18,0,0,0,9.37,2.55h5.54a17.85,17.85,0,0,0,9.4-2.55,19.39,19.39,0,0,0,6.75-6.78,18.13,18.13,0,0,0,2.51-9.41V14.18Z"/><path class="cls-1" d="M504.53,51.64a14.46,14.46,0,0,1-2,7.53,15.24,15.24,0,0,1-5.39,5.43,14.42,14.42,0,0,1-7.57,2H444V59.14h45.55a7.19,7.19,0,0,0,5.32-2.21,7.52,7.52,0,0,0,0-10.57,7.19,7.19,0,0,0-5.32-2.21H459a14.44,14.44,0,0,1-7.52-2A15.3,15.3,0,0,1,446,36.7a14.5,14.5,0,0,1-2-7.53,14.45,14.45,0,0,1,2-7.53,15.14,15.14,0,0,1,5.44-5.43,14.45,14.45,0,0,1,7.52-2h41.81v7.49H459a7.55,7.55,0,0,0-7.49,7.5A7.55,7.55,0,0,0,459,36.66h30.57a14.42,14.42,0,0,1,7.57,2,15.4,15.4,0,0,1,5.39,5.43A14.51,14.51,0,0,1,504.53,51.64Z"/><path class="cls-1" d="M528.28,66.63h-7.5V14.18h7.5Z"/><path class="cls-1" d="M611,40.4a29.77,29.77,0,0,1-1.73,10.23,25.6,25.6,0,0,1-4.9,8.35,22.52,22.52,0,0,1-7.61,5.62,23.3,23.3,0,0,1-9.81,2H569.48a23.47,23.47,0,0,1-9.89-2A22.38,22.38,0,0,1,552,59a25.45,25.45,0,0,1-4.91-8.35,29.77,29.77,0,0,1-1.72-10.23,29.6,29.6,0,0,1,1.72-10.15A26.05,26.05,0,0,1,552,21.86a22.21,22.21,0,0,1,7.6-5.65,23.47,23.47,0,0,1,9.89-2h17.46a23.3,23.3,0,0,1,9.81,2,22.34,22.34,0,0,1,7.61,5.65,26.21,26.21,0,0,1,4.9,8.39A29.61,29.61,0,0,1,611,40.4Zm-7.49,0a22.2,22.2,0,0,0-2-9.44,16.36,16.36,0,0,0-5.69-6.78,15.52,15.52,0,0,0-8.88-2.51H569.48a15.5,15.5,0,0,0-8.88,2.51A16.67,16.67,0,0,0,554.87,31a21.78,21.78,0,0,0-2,9.44,21.52,21.52,0,0,0,2,9.41,16.94,16.94,0,0,0,5.73,6.78,15.3,15.3,0,0,0,8.88,2.55h17.46a15.32,15.32,0,0,0,8.88-2.55,16.61,16.61,0,0,0,5.69-6.78A21.94,21.94,0,0,0,603.5,40.4Z"/><path class="cls-1" d="M635.56,66.63h-7.49V14.18h3.74a38.31,38.31,0,0,1,11.88,2.1,64.81,64.81,0,0,1,12.85,5.92,72.92,72.92,0,0,1,12.17,9.1A59.11,59.11,0,0,1,678.56,43V14.18h7.5V66.63h-7.5a32.15,32.15,0,0,0-2.81-13.23,46.4,46.4,0,0,0-7.45-11.68A63.11,63.11,0,0,0,658,32.2a65.42,65.42,0,0,0-11.5-6.82A41.22,41.22,0,0,0,635.56,22Z"/><path class="cls-2" d="M32.32,118.61H8.71V95.78H32.32V99H12v16.31H32.32Zm-2.77-9.78H13.6v-3.26h16Z"/><path class="cls-2" d="M61,118.61H57.7V107.2a8,8,0,0,0-1.09-4.11,8.21,8.21,0,0,0-3-3A8,8,0,0,0,49.55,99H47.78v19.57H44.52V95.78h5a11,11,0,0,1,5.69,1.53,11.64,11.64,0,0,1,4.09,4,11.73,11.73,0,0,1,4.09-4,11,11,0,0,1,5.7-1.53h5v22.83H70.88V99H69.12a8,8,0,0,0-4.1,1.09,8.37,8.37,0,0,0-2.95,3A7.87,7.87,0,0,0,61,107.2Z"/><path class="cls-2" d="M114.13,103.93A8,8,0,0,1,113,108a8.37,8.37,0,0,1-3,3,7.87,7.87,0,0,1-4.11,1.11H92.86v-3.23H106a4.66,4.66,0,0,0,2.48-.67,4.87,4.87,0,0,0,1.76-1.79,4.78,4.78,0,0,0,.66-2.47,4.73,4.73,0,0,0-.66-2.47,4.9,4.9,0,0,0-1.76-1.77A4.83,4.83,0,0,0,106,99H91v19.57H87.77V95.78H106a8,8,0,0,1,4.11,1.09,8.21,8.21,0,0,1,3,2.95A8,8,0,0,1,114.13,103.93Z"/><path class="cls-2" d="M152.19,118.61h-4.4l-6.85-6.52h-10v-3.23H144a4.68,4.68,0,0,0,2.48-.67,5,5,0,0,0,1.76-1.79,4.87,4.87,0,0,0,.65-2.47,4.82,4.82,0,0,0-.65-2.47,5,5,0,0,0-1.76-1.77A4.86,4.86,0,0,0,144,99H129.1v19.57h-3.26V95.78H144a8,8,0,0,1,4.11,1.09,8.18,8.18,0,0,1,2.95,2.95,8,8,0,0,1,1.09,4.11,8.1,8.1,0,0,1-6.85,8.06Z"/><path class="cls-2" d="M188.14,118.61H164.52V95.78h23.62V99H167.78v16.31h20.36Zm-2.78-9.78H169.42v-3.26h15.94Z"/><path class="cls-2" d="M225.55,112.09a6.3,6.3,0,0,1-.88,3.28,6.72,6.72,0,0,1-2.35,2.36,6.26,6.26,0,0,1-3.29.88H199.19v-3.26H219a3.12,3.12,0,0,0,2.31-1,3.26,3.26,0,0,0,0-4.6,3.12,3.12,0,0,0-2.31-1H205.72a6.37,6.37,0,0,1-3.28-.88,6.73,6.73,0,0,1-2.37-2.37,6.53,6.53,0,0,1,0-6.55,6.73,6.73,0,0,1,2.37-2.37,6.27,6.27,0,0,1,3.28-.88h18.2V99h-18.2a3.27,3.27,0,0,0,0,6.53H219a6.26,6.26,0,0,1,3.29.88,6.64,6.64,0,0,1,2.35,2.36A6.27,6.27,0,0,1,225.55,112.09Z"/><path class="cls-2" d="M263.48,118.61h-3.26v-6.52H242v-3.26h18.23V99H248.51a7.93,7.93,0,0,0-4.07,1.09,8.23,8.23,0,0,0-3,3,8,8,0,0,0-1.09,4.11v11.41h-3.26V107.2a11.11,11.11,0,0,1,.88-4.42,11.65,11.65,0,0,1,2.45-3.66,11.32,11.32,0,0,1,3.63-2.46,11.14,11.14,0,0,1,4.42-.88h15Z"/><path class="cls-2" d="M324.41,107.2a13,13,0,0,1-.75,4.45,11.3,11.3,0,0,1-2.13,3.64,10,10,0,0,1-3.33,2.44,10.19,10.19,0,0,1-4.29.88H302.4v-3.26h11.51a6.73,6.73,0,0,0,3.88-1.11,7.19,7.19,0,0,0,2.5-2.95,9.6,9.6,0,0,0,.86-4.09,9.73,9.73,0,0,0-.86-4.11,7.1,7.1,0,0,0-2.5-3A6.88,6.88,0,0,0,313.91,99H300.77v19.57H297.5V95.78h16.41a10.19,10.19,0,0,1,4.29.88,9.89,9.89,0,0,1,3.33,2.46,11.51,11.51,0,0,1,2.13,3.66A12.86,12.86,0,0,1,324.41,107.2Z"/><path class="cls-2" d="M360.36,118.61H336.74V95.78h23.62V99H340v16.31h20.36Zm-2.77-9.78H341.64v-3.26h15.95Z"/><path class="cls-2" d="M418.16,112.09a6.4,6.4,0,0,1-.88,3.28,6.81,6.81,0,0,1-2.35,2.36,6.27,6.27,0,0,1-3.3.88H391.8v-3.26h19.83a3.12,3.12,0,0,0,2.32-1,3.28,3.28,0,0,0,0-4.6,3.12,3.12,0,0,0-2.32-1H398.32a6.33,6.33,0,0,1-3.27-.88,6.73,6.73,0,0,1-2.37-2.37,6.53,6.53,0,0,1,0-6.55,6.73,6.73,0,0,1,2.37-2.37,6.24,6.24,0,0,1,3.27-.88h18.2V99h-18.2a3.28,3.28,0,0,0-3.26,3.26,3.3,3.3,0,0,0,3.26,3.27h13.31a6.27,6.27,0,0,1,3.3.88,6.72,6.72,0,0,1,2.35,2.36A6.37,6.37,0,0,1,418.16,112.09Z"/><path class="cls-2" d="M457.39,107.2a13.23,13.23,0,0,1-.74,4.45,11.51,11.51,0,0,1-2.14,3.64,10,10,0,0,1-3.31,2.44,10.15,10.15,0,0,1-4.28.88h-7.6a10.17,10.17,0,0,1-4.3-.88,9.9,9.9,0,0,1-3.31-2.44,11.15,11.15,0,0,1-2.14-3.64,13,13,0,0,1-.75-4.45,12.86,12.86,0,0,1,.75-4.42,11.35,11.35,0,0,1,2.14-3.66A9.82,9.82,0,0,1,435,96.66a10.17,10.17,0,0,1,4.3-.88h7.6a10.15,10.15,0,0,1,4.28.88,9.92,9.92,0,0,1,3.31,2.46,11.72,11.72,0,0,1,2.14,3.66A13.1,13.1,0,0,1,457.39,107.2Zm-3.26,0a9.73,9.73,0,0,0-.86-4.11,7.13,7.13,0,0,0-2.48-3A6.8,6.8,0,0,0,446.92,99h-7.6a6.79,6.79,0,0,0-3.86,1.09,7.24,7.24,0,0,0-2.5,3,9.59,9.59,0,0,0-.88,4.11,9.46,9.46,0,0,0,.88,4.09,7.35,7.35,0,0,0,2.5,2.95,6.65,6.65,0,0,0,3.86,1.11h7.6a6.66,6.66,0,0,0,3.87-1.11,7.22,7.22,0,0,0,2.48-2.95A9.6,9.6,0,0,0,454.13,107.2Z"/><path class="cls-2" d="M493.37,99H473v19.57h-3.27V95.78h23.65Zm-2.8,9.79H474.62v-3.26h15.95Z"/><path class="cls-2" d="M517.21,118.61H514V99H502.41V95.78h26.35V99H517.21Z"/><path class="cls-2" d="M569.4,110.39a8,8,0,0,1-1.11,4.13,8.45,8.45,0,0,1-3,3,8,8,0,0,1-4.15,1.11,8.09,8.09,0,0,1-3.75-.88,8.31,8.31,0,0,1-2.87-2.38,8,8,0,0,1-2.84,2.38,8.09,8.09,0,0,1-3.75.88,7.93,7.93,0,0,1-4.12-1.11,8.37,8.37,0,0,1-3-3,8,8,0,0,1-1.11-4.13V95.78H543v14.61a4.85,4.85,0,0,0,.67,2.5,5.06,5.06,0,0,0,1.8,1.79,4.74,4.74,0,0,0,2.49.67,4.79,4.79,0,0,0,2.45-.64,4.93,4.93,0,0,0,2.51-4.09V95.78h3.29v14.61a4.85,4.85,0,0,0,.67,2.5,5.06,5.06,0,0,0,1.8,1.79,5,5,0,0,0,5,0,5,5,0,0,0,1.79-1.79,4.75,4.75,0,0,0,.67-2.5V95.78h3.26Z"/><path class="cls-2" d="M608.77,118.61h-3.26v-6.52H587.28v-3.26h18.23V99H593.8a8,8,0,0,0-4.08,1.09,8.21,8.21,0,0,0-3,3,8,8,0,0,0-1.09,4.11v11.41h-3.26V107.2a11.11,11.11,0,0,1,.88-4.42,11.62,11.62,0,0,1,2.44-3.66,11.47,11.47,0,0,1,3.64-2.46,11.11,11.11,0,0,1,4.42-.88h15Z"/><path class="cls-2" d="M648.76,118.61h-4.4l-6.85-6.52h-10v-3.23h13.12a4.62,4.62,0,0,0,2.47-.67,5,5,0,0,0,1.77-1.79,4.87,4.87,0,0,0,.65-2.47,4.82,4.82,0,0,0-.65-2.47,5,5,0,0,0-1.77-1.77,4.8,4.8,0,0,0-2.47-.65H625.67v19.57h-3.26V95.78h18.2a8,8,0,0,1,4.11,1.09,8.26,8.26,0,0,1,2.95,2.95,8,8,0,0,1,1.09,4.11,8.13,8.13,0,0,1-3.34,6.61,8.27,8.27,0,0,1-3.51,1.45Z"/><path class="cls-2" d="M684.7,118.61H661.09V95.78H684.7V99H664.35v16.31H684.7Zm-2.77-9.78H666v-3.26h15.95Z"/></svg>