<svg id="EDITION" xmlns="http://www.w3.org/2000/svg" viewBox="0 0 365.79 352.59"><defs><style>.cls-1{fill:#fff;}</style></defs><path class="cls-1" d="M328.08,324.77h-1.8q-41.37,0-82.74,0a3.19,3.19,0,0,1-3-1.59Q203.29,268.93,166,214.68c-1.16-1.69-2.31-3.38-3.56-5.22-3.36,3.92-6.58,7.67-9.81,11.42L86.92,297.29c-7.56,8.79-15.09,17.6-22.69,26.36a3.28,3.28,0,0,1-2.11,1.08c-7.63.07-15.27,0-22.9,0H37.7q57-66.22,113.38-131.86L37.79,27.93c.63-.05,1.08-.12,1.53-.12q41.7,0,83.39,0a2.67,2.67,0,0,1,2.44,1.44Q138.44,48.62,151.77,68L185,116.34,198.46,136c.19.27.39.52.71,1,1.43-1.64,2.82-3.21,4.18-4.8l53.53-62.31q17.69-20.56,35.39-41.1a2.5,2.5,0,0,1,1.58-.87c8.12-.06,16.24,0,24.75,0-1.39,1.64-2.58,3.07-3.79,4.47q-31.35,36.48-62.71,72.94-20.34,23.66-40.72,47.29a1.5,1.5,0,0,0-.07,2.22q16.62,24.15,33.2,48.33l38,55.34,42,61.11C325.64,321.16,326.76,322.83,328.08,324.77ZM293,306.38c-.44-.7-.7-1.15-1-1.57L255,251.92l-63.59-91.06Q170.51,130.94,149.59,101,131.29,74.87,113,48.67a3.23,3.23,0,0,0-3-1.6c-11.88.07-23.76,0-35.64,0-.52,0-1,0-1.75.09l11.14,16q31.75,45.45,63.53,90.89L192.66,219q30.08,43,60.12,86.11a2.68,2.68,0,0,0,2.52,1.3c12,0,24,0,36,0Z"/></svg>