<svg id="EDITION" xmlns="http://www.w3.org/2000/svg" viewBox="0 0 365.79 352.59"><defs><style>.cls-1{fill:#fff;}</style></defs><path class="cls-1" d="M324.5,319.51l-42-61.11-38-55.34q-16.59-24.17-33.2-48.33a1.5,1.5,0,0,1,.07-2.22q20.4-23.61,40.72-47.29,31.36-36.47,62.71-72.94c1.21-1.4,2.4-2.83,3.79-4.47-8.51,0-16.63,0-24.75,0a2.5,2.5,0,0,0-1.58.87q-17.72,20.53-35.39,41.1l-53.53,62.31c-1.36,1.59-2.75,3.16-4.18,4.8-.32-.43-.52-.68-.71-1L185,116.34,151.77,68q-13.31-19.39-26.62-38.79a2.67,2.67,0,0,0-2.44-1.44q-41.7.07-83.39,0c-.45,0-.9.07-1.53.12l113.29,165Q94.53,258.7,37.7,324.77h1.52c7.63,0,15.27,0,22.9,0a3.28,3.28,0,0,0,2.11-1.08c7.6-8.76,15.13-17.57,22.69-26.36l65.72-76.41c3.23-3.75,6.45-7.5,9.81-11.42l3.56,5.22Q203.27,269,240.52,323.22a3.19,3.19,0,0,0,3,1.59q41.37-.07,82.74,0h1.8C326.76,322.83,325.64,321.16,324.5,319.51Z"/></svg>