<svg id="Capa_1" data-name="Capa 1" xmlns="http://www.w3.org/2000/svg" viewBox="0 0 667.12 667.12"><defs><style>.cls-1{opacity:0.97;}.cls-2{fill:none;}.cls-2,.cls-3{stroke:#ff006c;stroke-linecap:round;stroke-linejoin:round;stroke-width:8px;}</style></defs><g class="cls-1"><path class="cls-2" d="M416.45,119.63c-1.44,2.69-3.72,4.2-5.68,7.82-24.32,9.74-24.32,14-40.34,13.28-.87,0-1.78,0-2.67,0"/><path class="cls-2" d="M437.85,159.75c4.14,20.82,1.1,42,3,62.83,1.55,16.79-3,32.25-5.79,48.17a18.75,18.75,0,0,1-9.29,13.39"/><path class="cls-2" d="M425.81,131.66c-6.54-13.79-14.37-26.25-26.58-36.31-27.85-22.93-60.86-25.19-93.79-22.41-17.41,1.47-38.89,11.85-54.71,7.61"/><path class="cls-2" d="M481.51,399.69c-18,31-15.5,25-43.52,34.4"/><path class="cls-2" d="M387,258.73c11.7,2,19.56.93,25,10,2.21,3.66,6.13,9.44,8.63,12.91,7.67,10.65,6.17,13.69-5.66,26.46A202.82,202.82,0,0,1,390,331.33c-6.07,4.66-10.94,6.33-17.86,3.14-4.28-8.52-2.66-18.23-2.28-27.58.41-10.24-3.78-13.71-13.58-13.5-19.16.4-38.34.11-57.51.11"/><path class="cls-2" d="M262.07,179.26c9.2-8.39,19-10,29.79-2.91a20.42,20.42,0,0,0,4.38,2"/><path class="cls-2" d="M333.52,462V594.45"/><path class="cls-2" d="M459.75,462.7V595.12"/><path class="cls-2" d="M335.13,179.81V425"/><path class="cls-2" d="M205.12,498.15H159.65"/><path class="cls-2" d="M222.51,179.81c-7.83,1.37-16.62-3.57-23.06,6.49-6.2,9.68-10.51,18.43-5.06,29.64,5.75,11.84,14.84,17.54,28.12,16"/><path class="cls-2" d="M461.93,507.51H507.4"/><path class="cls-2" d="M461.93,542.29H507.4"/><path class="cls-2" d="M276,373.76c-19.26.79-38.31-.57-57.65,4.87-36.44,10.27-61.41,47-61.48,80.73-.09,44.14-.8,88.28-1.25,132.41"/><path class="cls-2" d="M384.56,336.11c5,25,9.92,39.36,4,53.82-3.06,7.5-15.14,33.32-26.48,33.32-10.26,0-33.19,3.09-43.24,1.13-15.93-3.09-26.59-13.87-33.33-28-8.66-18.09-7.73-37.1-2.82-56.1"/><path class="cls-2" d="M227.86,86.19c1.28,6.5-2.71,10.32-6.57,14.81-19.83,23-23.7,49.87-17.51,78.81"/><path class="cls-2" d="M412.73,373.76c22.7,2.13,51.39,7.8,68.78,25.93,13.14,13.7,23.55,26.86,27,45a181,181,0,0,1,2.75,32.07c.35,31.65.13,63.31.13,95v20.06"/><path class="cls-2" d="M387.87,489.75c.34,9.28.12,18.55.12,27.83v5.88"/><path class="cls-2" d="M366.2,548.6c.34,12.14.12,24.28.12,36.42v7.69"/><path class="cls-2" d="M405.2,566.31c.34,7.26.12,14.53.12,21.79v4.61"/><path class="cls-2" d="M209.13,466.05V591.77"/><path class="cls-2" d="M444.54,232c30.76,0,30.76,0,30.76-30.76,0-2.23,0-4.46,0-6.69-.18-13.83-2.24-16-16.05-16-4.9,0-9.81.82-14.71,1.26"/><path class="cls-2" d="M333.52,76.82c0,23.63.11,47.26,0,70.89-.08,11.57-3.78,14.16-14.68,13.5-26.05-1.59-49.48-11-71.74-23.76-11.51,12.19-12.49,28.87-21.91,41-4,5.09,2.52,8.43,1.62,13.45A158.69,158.69,0,0,0,225,230.55c2,25.54,4.87,52.74,23.14,73.45,10.79,12.25,22.6,24.52,36.29,33,10.43,6.45,24.43,8.53,37.09,9.53,10.9.87,22.2,1.47,33.54-1.65a44.49,44.49,0,0,0,17.24-8.55"/><circle class="cls-3" cx="372.31" cy="110.52" r="4.55"/><circle class="cls-2" cx="387.96" cy="201.66" r="17.95"/><circle class="cls-2" cx="423.86" cy="434.09" r="14.13"/><circle class="cls-3" cx="417.19" cy="232.22" r="4.55"/><circle class="cls-3" cx="283.55" cy="209.81" r="4.55"/><circle class="cls-3" cx="368.87" cy="383.44" r="4.55"/><path class="cls-2" d="M333.48,486.29h78.19a2.16,2.16,0,0,1,2.16,2.16V524a2.16,2.16,0,0,1-2.16,2.16H333.48a0,0,0,0,1,0,0V486.29A0,0,0,0,1,333.48,486.29Z"/></g></svg>