<svg id="Capa_1" data-name="Capa 1" xmlns="http://www.w3.org/2000/svg" viewBox="0 0 783.59 221.69"><defs><style>.cls-1,.cls-2{fill:#fff;}.cls-2{stroke:#0a0c06;stroke-linecap:round;stroke-linejoin:round;stroke-width:2px;}.cls-3{font-size:27.2px;fill:#ff006c;font-family:BrunoAce-Regular, Bruno Ace;letter-spacing:0.3em;}.cls-4{letter-spacing:0.26em;}</style></defs><path class="cls-1" d="M119,96.5a14.08,14.08,0,0,1-2,7.34,15,15,0,0,1-5.25,5.29,14.1,14.1,0,0,1-7.38,2H60v-7.3h44.38a7,7,0,0,0,5.19-2.15,7.32,7.32,0,0,0,0-10.3,7,7,0,0,0-5.19-2.15H74.6a14.16,14.16,0,0,1-7.34-2A15,15,0,0,1,62,81.94a14.66,14.66,0,0,1,0-14.68A15.06,15.06,0,0,1,67.26,62a14.16,14.16,0,0,1,7.34-2h40.74v7.3H74.6a7.3,7.3,0,0,0,0,14.6h29.78a14.1,14.1,0,0,1,7.38,2A15,15,0,0,1,117,89.16,14.1,14.1,0,0,1,119,96.5Z"/><path class="cls-1" d="M195.86,85.55a29.07,29.07,0,0,1-1.68,10,25.17,25.17,0,0,1-4.78,8.14,22.07,22.07,0,0,1-7.41,5.47,22.82,22.82,0,0,1-9.57,2h-17a22.93,22.93,0,0,1-9.63-2,21.87,21.87,0,0,1-7.41-5.47,24.82,24.82,0,0,1-4.78-8.14,30.19,30.19,0,0,1,0-19.86,25.21,25.21,0,0,1,4.78-8.18A21.72,21.72,0,0,1,145.78,62a22.93,22.93,0,0,1,9.63-2h17A22.82,22.82,0,0,1,182,62a21.91,21.91,0,0,1,7.41,5.51,25.58,25.58,0,0,1,4.78,8.18A28.81,28.81,0,0,1,195.86,85.55Zm-7.3,0a21.57,21.57,0,0,0-1.94-9.2,15.88,15.88,0,0,0-5.55-6.6,15.07,15.07,0,0,0-8.65-2.45h-17a15.07,15.07,0,0,0-8.65,2.45,16.09,16.09,0,0,0-5.58,6.6,21.15,21.15,0,0,0-2,9.2,20.88,20.88,0,0,0,2,9.16,16.38,16.38,0,0,0,5.58,6.61,14.93,14.93,0,0,0,8.65,2.48h17a14.93,14.93,0,0,0,8.65-2.48,16.16,16.16,0,0,0,5.55-6.61A21.29,21.29,0,0,0,188.56,85.55Z"/><path class="cls-1" d="M265.43,67.3H219.8v43.8h-7.3V60h52.93Zm-6.28,21.9h-35.7V81.9h35.7Z"/><path class="cls-1" d="M307.84,111.1h-7.3V67.3H274.7V60h59v7.3H307.84Z"/><path class="cls-1" d="M400.77,67.3H355.14v43.8h-7.3V60h52.93Zm-6.28,21.9h-35.7V81.9h35.7Z"/><path class="cls-1" d="M470.19,60l-.07,25.55a25.3,25.3,0,0,1-2,10,25.53,25.53,0,0,1-13.62,13.61,25.05,25.05,0,0,1-9.89,2h-5.4a25.16,25.16,0,0,1-18-7.48,26,26,0,0,1-5.48-8.18,25.09,25.09,0,0,1-2-9.89V60h7.3V85.55a17.62,17.62,0,0,0,2.45,9.16,18.66,18.66,0,0,0,6.6,6.61,17.56,17.56,0,0,0,9.13,2.48h5.4a17.46,17.46,0,0,0,9.16-2.48,18.74,18.74,0,0,0,6.57-6.61,17.62,17.62,0,0,0,2.45-9.16V60Z"/><path class="cls-1" d="M544.43,96.5a14.07,14.07,0,0,1-2,7.34,15,15,0,0,1-5.25,5.29,14.1,14.1,0,0,1-7.38,2H485.45v-7.3h44.38a7,7,0,0,0,5.19-2.15,7.34,7.34,0,0,0,0-10.3,7,7,0,0,0-5.19-2.15H500.05a14.16,14.16,0,0,1-7.34-2,14.9,14.9,0,0,1-5.29-5.29,14.66,14.66,0,0,1,0-14.68A15,15,0,0,1,492.71,62a14.16,14.16,0,0,1,7.34-2h40.73v7.3H500.05a7.3,7.3,0,0,0,0,14.6h29.78a14.1,14.1,0,0,1,7.38,2,15,15,0,0,1,5.25,5.29A14.1,14.1,0,0,1,544.43,96.5Z"/><path class="cls-1" d="M567.58,111.1h-7.3V60h7.3Z"/><path class="cls-1" d="M672.11,111.1h-7.3V60h3.65A37.43,37.43,0,0,1,680,62a63.51,63.51,0,0,1,12.52,5.77,70.81,70.81,0,0,1,11.87,8.87A58,58,0,0,1,714,88.11V60h7.29v51.1H714a31.51,31.51,0,0,0-2.74-12.88A45.42,45.42,0,0,0,704,86.83a61.1,61.1,0,0,0-10-9.27,63.37,63.37,0,0,0-11.21-6.65,40.46,40.46,0,0,0-10.66-3.32Z"/><path class="cls-2" d="M616.19,58c14.47,0,26.21,3.33,26.21,7.44s-11.74,7.46-26.21,7.46S590,69.58,590,65.46,601.73,58,616.19,58Z"/><path class="cls-2" d="M642.4,65.46v13.4c0,4.11-11.74,7.45-26.21,7.45S590,83,590,78.86V65.46m52.41,13.4V92.25c0,4.11-11.74,7.45-26.21,7.45S590,96.36,590,92.25V78.86M642.4,92.25v13.39c0,4.11-11.74,7.45-26.21,7.45s-26.2-3.34-26.2-7.45V92.25"/><path class="cls-2" d="M600.21,77.63l3,.53M600,91.45l3,.53m-3.25,13.28,3,.53"/><text class="cls-3" transform="translate(173.31 161.69)">ELITE PR<tspan class="cls-4" x="222.6" y="0">O</tspan><tspan x="255.84" y="0">VIDERS</tspan></text></svg>