<svg id="Capa_1" data-name="Capa 1" xmlns="http://www.w3.org/2000/svg" viewBox="0 0 667.12 667.12"><defs><style>.cls-1{opacity:0.97;}.cls-2{fill:none;}.cls-2,.cls-3{stroke:#ff006c;stroke-linecap:round;stroke-linejoin:round;stroke-width:6px;}</style></defs><rect id="Circulo" x="52.24" y="52.24" width="562.64" height="562.64" rx="188.05"/><g class="cls-1"><path class="cls-2" d="M386.78,196.21c-.93,1.73-2.4,2.7-3.65,5-15.61,6.25-15.61,9-25.9,8.52-.56,0-1.14,0-1.71,0"/><path class="cls-2" d="M400.52,222c2.65,13.37.7,27,1.94,40.34,1,10.78-1.93,20.7-3.71,30.93a12.07,12.07,0,0,1-6,8.59"/><path class="cls-2" d="M392.79,203.94c-4.2-8.86-9.23-16.86-17.07-23.31-17.88-14.72-39.08-16.18-60.22-14.39-11.17.94-25,7.61-35.12,4.88"/><path class="cls-2" d="M428.54,376C417,395.93,418.6,392.09,400.6,398.1"/><path class="cls-2" d="M367.88,285.52c7.52,1.3,12.56.59,16.09,6.45,1.41,2.35,3.93,6.06,5.53,8.29,4.93,6.83,4,8.79-3.63,17a130,130,0,0,1-16.09,14.88c-3.9,3-7,4.06-11.47,2-2.74-5.47-1.7-11.7-1.46-17.7.26-6.58-2.43-8.8-8.72-8.67-12.3.25-24.61.07-36.92.07"/><path class="cls-2" d="M287.66,234.5c5.91-5.39,12.23-6.42,19.13-1.87a13.24,13.24,0,0,0,2.81,1.28"/><path class="cls-2" d="M333.54,416v85"/><path class="cls-2" d="M414.57,416.47v85"/><path class="cls-2" d="M334.57,234.85V392.28"/><path class="cls-2" d="M251.1,439.23H221.9"/><path class="cls-2" d="M262.26,234.85c-5,.88-10.66-2.29-14.8,4.17-4,6.21-6.75,11.83-3.25,19,3.69,7.6,9.53,11.26,18,10.29"/><path class="cls-2" d="M416,445.24h29.2"/><path class="cls-2" d="M416,467.56h29.2"/><path class="cls-2" d="M296.61,359.37c-12.36.51-24.59-.37-37,3.13-23.4,6.59-39.42,30.15-39.47,51.82-.06,28.34-.51,56.68-.8,85"/><path class="cls-2" d="M366.3,335.2c3.21,16.05,6.37,25.27,2.58,34.55-2,4.81-9.73,21.39-17,21.39-6.59,0-21.31,2-27.76.73-10.23-2-17.08-8.91-21.4-17.95-5.56-11.62-5-23.82-1.81-36"/><path class="cls-2" d="M265.7,174.74c.82,4.18-1.74,6.63-4.22,9.51-12.73,14.8-15.22,32-11.24,50.6"/><path class="cls-2" d="M384.39,359.37c14.57,1.37,33,5,44.15,16.64,8.44,8.8,15.13,17.25,17.36,28.89a117.07,117.07,0,0,1,1.77,20.59c.22,20.32.07,40.64.07,61v12.88"/><path class="cls-2" d="M368.43,433.84c.22,6,.07,11.91.07,17.86v3.78"/><path class="cls-2" d="M354.51,471.62c.22,7.79.08,15.58.08,23.38v4.93"/><path class="cls-2" d="M379.55,483c.22,4.67.08,9.33.08,14v2.95"/><path class="cls-2" d="M253.68,418.62v80.71"/><path class="cls-2" d="M404.81,268.34c19.75,0,19.75,0,19.75-19.75,0-1.43,0-2.86,0-4.29-.12-8.87-1.44-10.28-10.31-10.26-3.14,0-6.29.53-9.44.81"/><path class="cls-2" d="M333.54,168.73c0,15.17.06,30.35,0,45.51-.05,7.43-2.43,9.1-9.42,8.67-16.73-1-31.78-7.07-46.06-15.26-7.4,7.83-8,18.54-14.07,26.33-2.54,3.26,1.61,5.41,1,8.63a101.83,101.83,0,0,0-1.13,24.82c1.28,16.4,3.13,33.86,14.86,47.15,6.93,7.86,14.5,15.75,23.3,21.18,6.69,4.13,15.68,5.47,23.8,6.12,7,.55,14.26.94,21.54-1.07a28.45,28.45,0,0,0,11.07-5.49"/><circle class="cls-3" cx="358.44" cy="190.37" r="2.92"/><circle class="cls-2" cx="368.49" cy="248.88" r="11.52"/><circle class="cls-2" cx="391.53" cy="398.1" r="9.07"/><circle class="cls-3" cx="387.25" cy="268.5" r="2.92"/><circle class="cls-3" cx="301.45" cy="254.11" r="2.92"/><circle class="cls-3" cx="356.23" cy="365.58" r="2.92"/><path class="cls-2" d="M333.51,431.61h49.42a2.16,2.16,0,0,1,2.16,2.16v21.29a2.16,2.16,0,0,1-2.16,2.16H333.51a0,0,0,0,1,0,0V431.61A0,0,0,0,1,333.51,431.61Z"/></g></svg>