<svg id="Capa_1" data-name="Capa 1" xmlns="http://www.w3.org/2000/svg" viewBox="0 0 667.12 667.12"><defs><style>.cls-1{fill:#ff006c;stroke:#ff006c;stroke-width:6px;}.cls-1,.cls-2{stroke-linecap:round;stroke-linejoin:round;}.cls-2{fill:none;stroke:#fff;stroke-width:10px;}</style></defs><rect id="Circulo" class="cls-1" x="36.86" y="36.86" width="593.39" height="593.39" rx="188.05"/><path class="cls-2" d="M400.24,161.45c-1.15,2.17-3,3.38-4.57,6.3-19.56,7.84-19.56,11.29-32.45,10.69-.7,0-1.43,0-2.15,0"/><path class="cls-2" d="M417.46,193.73c3.33,16.75.89,33.79,2.44,50.55,1.25,13.5-2.42,25.94-4.65,38.75a15.12,15.12,0,0,1-7.47,10.77"/><path class="cls-2" d="M407.78,171.14c-5.27-11.1-11.57-21.12-21.39-29.21-22.4-18.45-49-20.27-75.45-18-14,1.18-31.29,9.53-44,6.11"/><path class="cls-2" d="M452.58,386.76c-14.47,24.95-12.46,20.15-35,27.68"/><path class="cls-2" d="M376.57,273.36c9.41,1.63,15.74.75,20.15,8.09,1.77,2.94,4.93,7.59,6.94,10.38,6.17,8.57,5,11-4.55,21.29A163,163,0,0,1,379,331.76c-4.89,3.76-8.8,5.1-14.37,2.53-3.44-6.86-2.14-14.66-1.84-22.19.33-8.23-3-11-10.92-10.86-15.42.32-30.84.1-46.27.1"/><path class="cls-2" d="M276.05,209.43c7.4-6.75,15.32-8.05,24-2.34a16.59,16.59,0,0,0,3.53,1.6"/><path class="cls-2" d="M333.53,436.91V543.44"/><path class="cls-2" d="M435.08,437.45V544"/><path class="cls-2" d="M334.82,209.87V407.15"/><path class="cls-2" d="M230.23,466H193.65"/><path class="cls-2" d="M244.22,209.87c-6.3,1.11-13.37-2.87-18.55,5.22-5,7.79-8.45,14.83-4.07,23.85,4.63,9.52,11.94,14.11,22.62,12.9"/><path class="cls-2" d="M436.83,473.5h36.58"/><path class="cls-2" d="M436.83,501.48h36.58"/><path class="cls-2" d="M287.26,365.9c-15.49.64-30.82-.46-46.37,3.92-29.33,8.26-49.41,37.78-49.46,64.94-.08,35.51-.65,71-1,106.53"/><path class="cls-2" d="M374.59,335.61c4,20.12,8,31.67,3.23,43.3-2.47,6-12.19,26.8-21.31,26.8-8.25,0-26.7,2.49-34.78.92-12.82-2.5-21.4-11.17-26.82-22.5-7-14.55-6.22-29.85-2.27-45.13"/><path class="cls-2" d="M248.53,134.55c1,5.23-2.18,8.31-5.29,11.92-16,18.54-19.07,40.12-14.08,63.4"/><path class="cls-2" d="M397.25,365.9c18.26,1.71,41.34,6.27,55.33,20.86,10.57,11,18.95,21.61,21.75,36.2a146.28,146.28,0,0,1,2.21,25.79c.28,25.46.1,50.93.1,76.4v16.14"/><path class="cls-2" d="M377.25,459.21c.28,7.46.1,14.93.1,22.39v4.73"/><path class="cls-2" d="M359.82,506.56c.27,9.76.09,19.53.09,29.29V542"/><path class="cls-2" d="M391.19,520.8c.28,5.84.1,11.69.1,17.53V542"/><path class="cls-2" d="M233.46,440.14V541.29"/><path class="cls-2" d="M422.84,251.84c24.75,0,24.75,0,24.75-24.75,0-1.79,0-3.59,0-5.38-.15-11.12-1.81-12.88-12.91-12.86-3.95,0-7.89.67-11.84,1"/><path class="cls-2" d="M333.53,127c0,19,.09,38,0,57-.06,9.3-3,11.39-11.8,10.86-21-1.28-39.81-8.86-57.71-19.12-9.27,9.81-10.05,23.23-17.64,33-3.18,4.09,2,6.78,1.31,10.81a127,127,0,0,0-1.41,31.1c1.59,20.55,3.91,42.43,18.61,59.09,8.68,9.85,18.18,19.73,29.2,26.53,8.39,5.19,19.65,6.86,29.83,7.67,8.77.7,17.86,1.18,27-1.33a35.92,35.92,0,0,0,13.88-6.88"/><circle class="cls-2" cx="364.74" cy="154.13" r="3.66"/><circle class="cls-2" cx="377.33" cy="227.45" r="14.44"/><circle class="cls-2" cx="406.2" cy="414.44" r="11.37"/><circle class="cls-2" cx="400.84" cy="252.03" r="3.66"/><circle class="cls-2" cx="293.32" cy="234.01" r="3.66"/><circle class="cls-2" cx="361.97" cy="373.69" r="3.66"/><path class="cls-2" d="M333.5,456.43H396a2.16,2.16,0,0,1,2.16,2.16v27.77a2.16,2.16,0,0,1-2.16,2.16H333.5a0,0,0,0,1,0,0V456.43A0,0,0,0,1,333.5,456.43Z"/></svg>