<svg id="Capa_1" data-name="Capa 1" xmlns="http://www.w3.org/2000/svg" viewBox="0 0 1500 803.13"><defs><style>.cls-1{fill:#510073;}.cls-2{fill:#ff982e;}.cls-3{fill:#d7ff00;}.cls-4{fill:#1b00a2;}.cls-5{fill:#f80;}.cls-6{fill:#00b6d0;}.cls-7{fill:#d000cd;}</style></defs><path class="cls-1" d="M536.05,651.1a4.54,4.54,0,0,0-2-1.47c-1.5-.69-1.45-.62-1-1.46a8.15,8.15,0,0,0,.64-1.69,9.68,9.68,0,0,1,.36-1.22c.3-.66-.66-.93-1.28-.36a1.78,1.78,0,0,1-.38.29,4.81,4.81,0,0,0-.69.72c-.85,1-.93,1-1.64.32a9.13,9.13,0,0,1-.9-1,1,1,0,0,0-1.53-.36l-.53.45c-.2.16-.19.32.11,1.54.18.75.35,1.53.36,1.73l0,.37-1.26.34a4.17,4.17,0,0,0-1.61.66c-.65.59-.64.63.06.91a10.46,10.46,0,0,0,2.89.54c.29,0,.34.11.89,2.62.27,1.24.28,1.26.67,1.4a.85.85,0,0,0,.8-.06c.36-.18.44-.33.67-1.33l.26-1.13.51.52c.79.79,1.29,1.05,1.75.92.62-.16.67-.43.29-1.56l-.33-1,1,.2c.79.16,1.07.16,1.4,0a1,1,0,0,0,.48-.44h0A1,1,0,0,0,536.05,651.1Z"/><path class="cls-2" d="M428,243a3,3,0,0,0-1.38-1c-1-.48-1-.43-.66-1a5.74,5.74,0,0,0,.43-1.15,5.45,5.45,0,0,1,.24-.83c.21-.44-.45-.62-.86-.24a1.18,1.18,0,0,1-.26.2,3.42,3.42,0,0,0-.47.48c-.58.67-.63.68-1.11.22a5.7,5.7,0,0,1-.61-.7.71.71,0,0,0-1-.24l-.35.3c-.14.12-.13.22.07,1.05.12.51.23,1,.24,1.17l0,.25-.85.23a2.68,2.68,0,0,0-1.09.45c-.44.39-.44.42,0,.62a7.22,7.22,0,0,0,2,.36c.2,0,.23.07.6,1.77.19.84.19.86.46.95a.55.55,0,0,0,.54,0c.24-.12.3-.23.45-.9l.18-.76.34.35c.54.53.88.71,1.19.62s.45-.29.2-1.05l-.23-.67.67.13c.54.11.73.11.95,0a.7.7,0,0,0,.33-.3h0A.77.77,0,0,0,428,243Z"/><path class="cls-3" d="M670.19,439.51a3.47,3.47,0,0,0,.95.43,2.48,2.48,0,0,0,1.62.09,2.32,2.32,0,0,0,.9-.3.14.14,0,0,1,.16-.1c.21.09.92-.7,1.16-1.28a2.59,2.59,0,0,0-.13-2.28,3.2,3.2,0,0,0-1.68-1.73,2.68,2.68,0,0,0-2.82.51c-1,.88-1.18,2.32-.45,4.21A1.45,1.45,0,0,0,670.19,439.51Z"/><path class="cls-4" d="M21.77,393.86a2.71,2.71,0,0,1,.51.22,14.79,14.79,0,0,0,2.89.54l.38.05L25,395c-1.08.72-1.84,1.6-1.56,1.78a6.32,6.32,0,0,0,2.73-.85l.43-.25-.41,1.86c-.32,1.48-.39,1.88-.32,1.95s.41.27.5.22A10.34,10.34,0,0,0,27,397.7c.07-.28.23-.88.35-1.32l.21-.81.23.27c.12.16.41.56.64.9.88,1.31,1,1.41,1.19,1.27a.4.4,0,0,0,.16-.16,8.59,8.59,0,0,0-.7-1.79,3,3,0,0,1-.3-.76.33.33,0,0,1,.23,0c.1,0,.61.06,1.14.09s1.16.06,1.38.09a8.11,8.11,0,0,0,.86,0h.67a.92.92,0,0,0,.4-.11h0c.22-.14.25-.21.13-.36s-.76-.26-3.16-.68c-.63-.11-1.15-.21-1.16-.23a7.92,7.92,0,0,1,.72-.43c.84-.46,1.46-1,1.44-1.26s0-.16-.33-.18a4.93,4.93,0,0,0-2,.56l-.78.32v-.22a6.59,6.59,0,0,1,.12-.78c.33-1.45.3-3.58-.05-3.66-.16,0-.36.36-.48,1a24.47,24.47,0,0,1-.93,3.46,5.45,5.45,0,0,1-.6-.68l-.89-1.13c-.5-.63-1-1-1.14-1a.26.26,0,0,0-.14.13,7.89,7.89,0,0,0,1.15,2l.68,1-.59.05a19.15,19.15,0,0,1-3.16-.11c-.87-.1-1.06-.07-1.12.17S21.4,393.78,21.77,393.86Z"/><path class="cls-5" d="M1223.25,724a2.46,2.46,0,0,1,.52.21,14.4,14.4,0,0,0,2.89.55l.38,0-.56.38c-1.08.72-1.85,1.59-1.56,1.78a6.26,6.26,0,0,0,1.87-.43,7.66,7.66,0,0,0,.86-.43l.42-.24-.4,1.85c-.33,1.48-.39,1.88-.32,2s.41.27.5.21a10.13,10.13,0,0,0,.68-2c.07-.29.23-.88.34-1.33l.21-.8.24.27c.12.15.41.55.64.89.88,1.32,1,1.41,1.19,1.28a.41.41,0,0,0,.16-.17,8.84,8.84,0,0,0-.7-1.78,3.18,3.18,0,0,1-.3-.77.43.43,0,0,1,.23,0c.09,0,.61.06,1.14.08s1.15.06,1.38.09a6,6,0,0,0,.86,0h.67a.71.71,0,0,0,.4-.11h0c.22-.13.24-.2.13-.36a13.35,13.35,0,0,0-3.16-.67c-.63-.11-1.15-.21-1.16-.23a5.72,5.72,0,0,1,.72-.44c.84-.46,1.46-1,1.44-1.25s-.06-.17-.34-.19a4.84,4.84,0,0,0-2,.57l-.79.31v-.21a5,5,0,0,1,.12-.78c.33-1.46.3-3.58,0-3.66-.16,0-.36.36-.48,1a24.2,24.2,0,0,1-.93,3.45,5,5,0,0,1-.6-.67c-.28-.37-.68-.87-.89-1.13-.5-.64-1-1-1.14-1a.26.26,0,0,0-.14.13,7.41,7.41,0,0,0,1.15,2l.68,1-.59,0a19.09,19.09,0,0,1-3.16-.1c-.87-.11-1.07-.08-1.12.16S1222.89,723.91,1223.25,724Z"/><path class="cls-6" d="M840.15,302.52c-.34-.18-1.17-.66-2.06-1.18a6.37,6.37,0,0,0-.69-.37,2.25,2.25,0,0,1-.28-.14s0-.25,0-.85c0-.17,0-.4,0-.51v-.56c0-.2,0-.47,0-.62a9,9,0,0,1,.11-1.24c0-.26,0-.37-.08-.4a.25.25,0,0,0-.27.16c-.16.3-.7,1.13-1,1.54-.09.13-.21.33-.27.44s-.23.45-.4.74l-.3.54-.21,0a7.32,7.32,0,0,1-1,.11,4.27,4.27,0,0,0-.56.07,14,14,0,0,1-2,.22c-.11,0-.2,0-.21,0a.47.47,0,0,1,0,.09c0,.07.08.24.22.32a1.71,1.71,0,0,0,.3.14,9.9,9.9,0,0,1,1,.48l1.63.77c.18.08.17,0,.17.82,0,.22,0,.51,0,.63a5.56,5.56,0,0,1,0,.69c0,.11,0,.32,0,.45s0,.45,0,.7a4.74,4.74,0,0,0,0,.61.94.94,0,0,1,0,.29c-.05.21.06.29.26.19s.11-.09.16-.23a2.41,2.41,0,0,1,.28-.49,5.77,5.77,0,0,0,.58-1.06c0-.14.22-.49.36-.78a5.42,5.42,0,0,0,.28-.59.5.5,0,0,1,.37-.22,4.22,4.22,0,0,0,.87,0l.86-.08c.25,0,.58-.05.73-.08l.5,0a6.16,6.16,0,0,0,.91-.08C840.83,303,840.72,302.81,840.15,302.52Zm-7.92-1.5c-.09,0-.16,0-.15,0s.09,0,.18,0C832.54,301,832.52,301,832.23,301Zm1.92,0A.47.47,0,0,1,834,301l.13,0c.12,0,.13,0,.18.06l.05.09Zm.08,1-.12-.05c-.07,0-.07,0,0-.07s.09,0,.1,0a.23.23,0,0,1,0,.11C834.27,302,834.27,302,834.23,302Zm1-1.67s-.06-.07,0-.1,0,0,.1,0S835.37,300.44,835.26,300.33Zm.16.5s0-.06,0-.08,0,0,0,0,0,.07,0,.08S835.44,300.86,835.42,300.83Zm.8.64s0,0,0,0,0,.05,0,0S836.17,301.49,836.22,301.47Zm.55-1.63s0,0,0,.07,0,.08,0,0A.5.5,0,0,1,836.77,299.84Zm-1.89,4.44s0-.06,0-.06,0,0,0,0S834.89,304.31,834.88,304.28Zm1.29-2.28-.11.07,0-.12-.06-.11.17,0,.17.05Zm.42.95c-.08,0-.18-.1-.16-.16s.15,0,.23,0S836.76,303,836.59,303Zm.5-.76c-.19.07-.19.07-.13,0l.1-.07C837.16,302.11,837.18,302.16,837.09,302.19Zm.61-.72s0,0,0,0l.15.09c.13.07.16.13.06.13S837.68,301.52,837.7,301.47Zm-.35,1.5h-.11l.11-.06h0c.1-.07.11-.07.17,0S837.59,303,837.35,303Zm.55,0s0,0,0,0a0,0,0,0,1,.06,0S837.94,303,837.9,303Zm.6,0c-.1,0-.13,0,0,0s.08,0,.1,0S838.56,302.9,838.5,302.91Zm.53-.64c-.07,0-.12,0-.12-.06l.05,0,.12.06C839.14,302.3,839.14,302.3,839,302.27Zm.46.52c-.12,0-.19,0-.13-.07s.07,0,.14,0l.13,0Z"/><path class="cls-7" d="M1473.69,350.35a4.48,4.48,0,0,0,2.38-.75c1.45-.78,1.37-.79,1.76.08a8.12,8.12,0,0,0,1,1.52c.34.42.69.88.77,1,.34.64,1.13,0,1-.81a1.73,1.73,0,0,1,0-.47,5,5,0,0,0-.16-1c-.29-1.27-.25-1.35.72-1.51a8,8,0,0,1,1.36-.1,1,1,0,0,0,1.2-1c0-.22,0-.53,0-.69s-.15-.34-1.3-.83a15.94,15.94,0,0,1-1.6-.75l-.31-.2.48-1.21a4.23,4.23,0,0,0,.43-1.69c-.08-.87-.12-.89-.76-.5a10.21,10.21,0,0,0-2.16,2c-.15.25-.29.2-2.64-.86-1.15-.52-1.17-.52-1.52-.3a.91.91,0,0,0-.43.68c-.07.4,0,.56.67,1.33l.75.88-.72.11c-1.11.16-1.61.4-1.79.85-.24.6,0,.79,1.08,1.17l1,.32-.76.67c-.6.54-.77.76-.84,1.13a1,1,0,0,0,.07.65h0A1,1,0,0,0,1473.69,350.35Z"/><path class="cls-2" d="M1401.29,152.45a3.37,3.37,0,0,1-.48.29,14.3,14.3,0,0,0-2.16,2l-.27.28,0-.67c.07-1.3-.18-2.43-.5-2.31a6.35,6.35,0,0,0-.77,1.75,9.2,9.2,0,0,0-.17.94l-.06.49-1.25-1.43c-1-1.15-1.27-1.44-1.37-1.43s-.46.17-.47.28a10.42,10.42,0,0,0,1.23,1.76l.86,1.07.52.65-.36,0a10.38,10.38,0,0,1-1.1,0c-1.58-.09-1.71-.07-1.73.19a.38.38,0,0,0,0,.23,9.16,9.16,0,0,0,1.85.5,2.5,2.5,0,0,1,.79.22s-.05.12-.13.18-.41.46-.75.87-.74.89-.9,1-.4.46-.55.66l-.4.54a.89.89,0,0,0-.15.38h0c0,.26,0,.32.21.32s.67-.45,2.44-2.13c.45-.43.85-.79.86-.79a4.74,4.74,0,0,1-.07.84c-.13.94-.07,1.77.14,1.9s.17.05.35-.16a4.85,4.85,0,0,0,.73-1.92l.22-.82.17.14a5.9,5.9,0,0,1,.55.56c1,1.13,2.69,2.38,3,2.15s-.07-.51-.48-1a25,25,0,0,1-2.22-2.8,5.09,5.09,0,0,1,.9-.08l1.44,0c.81,0,1.42-.16,1.45-.34a.23.23,0,0,0,0-.19,7.49,7.49,0,0,0-2.31-.28l-1.18,0,.32-.5a19.7,19.7,0,0,1,2-2.47c.6-.63.7-.81.54-1S1401.58,152.21,1401.29,152.45Z"/><path class="cls-6" d="M89.73,689.25c-2.42.54-3.13,1.46-2.74,3.53.27,1.44,2.51,3.52,3.79,3.52,1.58,0,3.4-.66,3.93-1.43a2.94,2.94,0,0,0,.52-1.44C95.23,691.38,91.8,688.78,89.73,689.25Z"/></svg>